<?xml version="1.0" encoding="utf-8"?>
<svg xmlns="http://www.w3.org/2000/svg" xmlns:svg="http://www.w3.org/2000/svg" version="1.1" viewBox="0 0 1400 440">
	<title>The titlepage for the Standard Ebooks edition of Practical Mysticism, by Evelyn Underhill</title>
	<g aria-label="PRACTICAL">
		<path d="M 411.30847,52.807016 V 130 h 17.59065 v -28.63158 h 10.5731 c 15.06433,0 26.38596,-8.888888 26.38596,-24.795322 0,-16 -11.32163,-23.766082 -26.38596,-23.766082 z m 17.59065,34.526317 V 66.842104 h 4.95906 c 6.92398,0 13.47369,2.339181 13.47369,10.292398 0,7.859649 -6.54971,10.198831 -13.47369,10.198831 z"/>
		<path d="M 478.62573,52.807016 V 130 h 17.59064 V 99.497075 L 519.79532,130 h 22.36257 l -26.5731,-31.906433 c 9.4503,-2.994152 15.81287,-10.760234 15.81287,-22.362574 0,-15.157895 -10.8538,-22.923977 -25.16959,-22.923977 z m 17.59064,34.245615 V 66.842104 h 2.05848 c 6.64328,0 14.59649,0.467836 14.59649,10.105263 0,9.637428 -7.95321,10.105264 -14.59649,10.105264 z"/>
		<path d="m 589.89912,52.807016 h -16.2807 L 542.46053,130 h 18.90058 l 5.70761,-15.4386 h 29.38011 L 602.15644,130 h 18.90058 z m 0.56141,46.31579 h -17.40351 l 8.60819,-22.45614 h 0.18713 z"/>
		<path d="m 667.12865,114.09357 c -17.68421,0 -25.45029,-12.35088 -25.45029,-22.736846 0,-10.292397 7.76608,-22.643275 25.45029,-22.643275 8.98246,0 15.1579,4.77193 15.1579,4.77193 l 7.48538,-14.97076 c 0,0 -8.60819,-7.111112 -25.35673,-7.111112 -21.89473,0 -41.82456,17.964913 -41.82456,40.140352 0,22.081871 20.02339,39.859651 41.82456,39.859651 16.74854,0 25.35673,-7.11111 25.35673,-7.11111 l -7.48538,-14.97076 c 0,0 -6.17544,4.77193 -15.1579,4.77193 z"/>
		<path d="m 696.72807,68.245613 h 18.33918 V 130 H 732.6579 V 68.245613 h 18.33918 V 52.807016 h -54.26901 z"/>
		<path d="M 779.92253,52.807016 H 762.33188 V 130 h 17.59065 z"/>
		<path d="m 834.35819,114.09357 c -17.68421,0 -25.45029,-12.35088 -25.45029,-22.736846 0,-10.292397 7.76608,-22.643275 25.45029,-22.643275 8.98246,0 15.1579,4.77193 15.1579,4.77193 l 7.48538,-14.97076 c 0,0 -8.60819,-7.111112 -25.35673,-7.111112 -21.89473,0 -41.82456,17.964913 -41.82456,40.140352 0,22.081871 20.02339,39.859651 41.82456,39.859651 16.74854,0 25.35673,-7.11111 25.35673,-7.11111 l -7.48538,-14.97076 c 0,0 -6.17544,4.77193 -15.1579,4.77193 z"/>
		<path d="m 908.02777,52.807016 h -16.2807 L 860.58917,130 h 18.90059 l 5.7076,-15.4386 h 29.38012 L 920.28508,130 h 18.90059 z m 0.56141,46.31579 h -17.40351 l 8.60818,-22.45614 h 0.18714 z"/>
		<path d="M 964.69593,52.807016 H 947.10529 V 130 h 44.16374 v -15.4386 h -26.5731 z"/>
	</g>
	<g aria-label="MYSTICISM">
		<path d="m 482.79678,230 h 17.59064 l -6.92397,-77.19298 H 474.75 l -17.12281,44.53801 -17.12281,-44.53801 H 421.79093 L 414.86695,230 h 17.59065 l 3.64912,-45.75439 h 0.46784 l 15.81286,45.28655 h 10.47954 l 15.81286,-45.28655 h 0.46784 z"/>
		<path d="m 495.60672,152.80702 28.44445,42.5731 V 230 h 17.59064 v -34.61988 l 28.44445,-42.5731 h -21.1462 l -16.09357,24.70175 -16.09357,-24.70175 z"/>
		<path d="m 601.7997,151.40351 c -12.44445,0 -25.16959,9.16959 -25.16959,23.57895 0,8.04678 5.4269,15.25146 14.69005,19.83625 9.16959,4.5848 17.40351,7.11111 17.40351,12.72515 0,7.20468 -7.29824,7.57895 -11.1345,7.57895 -8.60819,0 -18.90059,-8.70176 -18.90059,-8.70176 l -8.79532,14.78363 c 0,0 10.94737,10.19883 29.00585,10.19883 15.06433,0 29.09942,-6.45614 29.09942,-24.88889 0,-10.10526 -9.4503,-17.40351 -18.05848,-21.05263 -8.79532,-3.74269 -16.09357,-6.83041 -16.09357,-11.13451 0,-4.21052 3.18129,-6.92397 9.16959,-6.92397 7.95322,0 15.62573,5.33333 15.62573,5.33333 l 7.11111,-14.03509 c 0,0 -9.91813,-7.29824 -23.95321,-7.29824 z"/>
		<path d="m 631.78654,168.24561 h 18.33918 V 230 h 17.59064 v -61.75439 h 18.33918 v -15.43859 h -54.269 z"/>
		<path d="M 714.98099,152.80702 H 697.39035 V 230 h 17.59064 z"/>
		<path d="m 769.41666,214.09357 c -17.68421,0 -25.4503,-12.35088 -25.4503,-22.73685 0,-10.29239 7.76609,-22.64327 25.4503,-22.64327 8.98245,0 15.15789,4.77193 15.15789,4.77193 l 7.48538,-14.97076 c 0,0 -8.60818,-7.11111 -25.35672,-7.11111 -21.89474,0 -41.82456,17.96491 -41.82456,40.14035 0,22.08187 20.02339,39.85965 41.82456,39.85965 16.74854,0 25.35672,-7.11111 25.35672,-7.11111 l -7.48538,-14.97076 c 0,0 -6.17544,4.77193 -15.15789,4.77193 z"/>
		<path d="M 821.47223,152.80702 H 803.88159 V 230 h 17.59064 z"/>
		<path d="m 864.37282,151.40351 c -12.44445,0 -25.16959,9.16959 -25.16959,23.57895 0,8.04678 5.4269,15.25146 14.69005,19.83625 9.16959,4.5848 17.40351,7.11111 17.40351,12.72515 0,7.20468 -7.29824,7.57895 -11.1345,7.57895 -8.60819,0 -18.90059,-8.70176 -18.90059,-8.70176 l -8.79532,14.78363 c 0,0 10.94737,10.19883 29.00585,10.19883 15.06433,0 29.09942,-6.45614 29.09942,-24.88889 0,-10.10526 -9.4503,-17.40351 -18.05848,-21.05263 -8.79532,-3.74269 -16.09357,-6.83041 -16.09357,-11.13451 0,-4.21052 3.18129,-6.92397 9.16959,-6.92397 7.95322,0 15.62573,5.33333 15.62573,5.33333 l 7.11111,-14.03509 c 0,0 -9.91813,-7.29824 -23.95321,-7.29824 z"/>
		<path d="m 967.60672,230 h 17.59064 l -6.92398,-77.19298 h -18.71345 l -17.1228,44.53801 -17.12281,-44.53801 H 906.60087 L 899.67689,230 h 17.59064 l 3.64913,-45.75439 h 0.46783 l 15.81287,45.28655 h 10.47953 l 15.81287,-45.28655 h 0.46783 z"/>
	</g>
	<g aria-label="EVELYN UNDERHILL">
		<path d="M 346.48904,332.10526 H 313.36623 V 390 h 33.12281 v -11.57895 h -19.92983 v -11.64912 h 19.08772 v -11.57895 h -19.08772 v -11.50877 h 19.92983 z"/>
		<path d="m 377.17873,390 h 10.38597 l 24.2807,-57.89474 h -14.87719 l -14.5965,38.03509 -14.59649,-38.03509 h -14.87719 z"/>
		<path d="M 452.1579,332.10526 H 419.03509 V 390 h 33.12281 v -11.57895 h -19.92982 v -11.64912 h 19.08771 v -11.57895 h -19.08771 v -11.50877 h 19.92982 z"/>
		<path d="M 477.93531,332.10526 H 464.74233 V 390 h 33.12281 v -11.57895 h -19.92983 z"/>
		<path d="m 497.55484,332.10526 21.33333,31.92983 V 390 h 13.19298 v -25.96491 l 21.33334,-31.92983 h -15.85965 l -12.07018,18.52632 -12.07017,-18.52632 z"/>
		<path d="m 573.73576,354.07018 h 0.14035 L 596.89365,390 h 13.19298 v -57.89474 h -13.19298 v 35.92983 H 596.7533 L 573.73576,332.10526 H 560.54278 V 390 h 13.19298 z"/>
		<path d="m 692.19956,332.10526 h -13.19298 v 33.47369 c 0,9.68421 -2.94737,12.49123 -9.40351,12.49123 -6.45614,0 -9.40351,-2.80702 -9.40351,-12.49123 v -33.47369 h -13.19298 v 37.33334 c 0,14.31579 7.85965,21.61403 22.59649,21.61403 14.73684,0 22.59649,-7.29824 22.59649,-21.61403 z"/>
		<path d="m 718.12171,354.07018 h 0.14035 L 741.27961,390 h 13.19298 v -57.89474 h -13.19298 v 35.92983 h -0.14035 L 718.12171,332.10526 H 704.92873 V 390 h 13.19298 z"/>
		<path d="M 767.90572,332.10526 V 390 h 16.77193 c 15.92983,0 29.19298,-12.07018 29.19298,-28.98246 0,-16.8421 -13.33333,-28.91228 -29.19298,-28.91228 z m 13.19298,46.10527 v -34.31579 h 2.03509 c 9.82456,0 16.49123,7.50877 16.49123,17.19298 -0.0702,9.68421 -6.73684,17.12281 -16.49123,17.12281 z"/>
		<path d="m 857.83773,332.10526 h -33.1228 V 390 h 33.1228 v -11.57895 h -19.92982 v -11.64912 h 19.08772 v -11.57895 h -19.08772 v -11.50877 h 19.92982 z"/>
		<path d="M 870.42214,332.10526 V 390 h 13.19298 V 367.12281 L 901.29933,390 h 16.77193 l -19.92982,-23.92982 c 7.08772,-2.24562 11.85965,-8.07018 11.85965,-16.77193 0,-11.36842 -8.14035,-17.19299 -18.8772,-17.19299 z m 13.19298,25.68421 v -15.15789 h 1.54386 c 4.98246,0 10.94737,0.35088 10.94737,7.57895 0,7.22807 -5.96491,7.57894 -10.94737,7.57894 z"/>
		<path d="m 938.9167,366.77193 h 18.66666 V 390 h 13.19299 v -57.89474 h -13.19299 v 23.08772 H 938.9167 V 332.10526 H 925.72371 V 390 h 13.19299 z"/>
		<path d="M 997.37062,332.10526 H 984.17763 V 390 h 13.19299 z"/>
		<path d="m 1024.0263,332.10526 h -13.193 V 390 h 33.1228 v -11.57895 h -19.9298 z"/>
		<path d="m 1068.637,332.10526 h -13.1929 V 390 h 33.1228 v -11.57895 h -19.9299 z"/>
	</g>
</svg>
